<svg xmlns="http://www.w3.org/2000/svg" viewBox="0 0 1080 1080"><path d="m526 34 28 1 24 3 27 6 19 6 19 7 25 12 19 11 16 11 12 9 13 11 12 11 14 14 9 11 12 15 14 21 12 21 10 21 9 25 5 17 5 25 2 17v19l12-8 3-1h12l16 8 38 19 19 10 26 13 19 10 24 12 19 10 11 6 8 9 4 11 1 14-2 17-6 21-8 20-11 21-10 15-11 14-12 12-11 7-10 4-9 1-12-3-35-18-14-7h-2l-14 28-2 5 6 7 2 4v12l-4 9 5 5 1 3v12l4 2 11 9 9 11 7 10 9 17 6 17 3 15 1 11v12l-2 16-4 16-5 13-7 13-9 12-13 13-15 10-16 7h-2l4 22v5l11-2h26l14 3 10 5 13 13 10 16 8 17 8 24 4 16 8 7 4 5 14 7 8 8 13 21 12 23 8 16 10 21 8 19H900l-7-14-3-7-7 2-10-1-6-4-3-5-5-28v-6l-9-1-10-4-8-6-7-7-1 81H230l1-70-10 4-3 20-4 8-7 4h-11l-6-4-3-3-11 23-8 17-1 1H11l1-6 12-26 17-34 13-23 12-20 9-12 5-6 9-6 8-3 4-15 7-16 10-16 12-15 9-12 8-16 13-28 7-12 6-5 5-2h8l11 4 6 5 5 8 3-21 3-26 1-3-10-3-17-8-14-10-11-10-11-14-8-14-5-11-4-13-3-20v-15l3-20 6-18 9-17 9-12 9-10 14-11 14-8 14-6 16-4 25-3 11-9 7-6 10-14 12-13 3-3-1-4-10-11-13-18-9-15-12-23-9-23-7-24-4-21-2-19v-27l3-27 5-24 8-26 8-20 8-17 12-21 11-16 9-12 9-11 11-12 19-19 11-9 14-11 21-14 16-9 16-8 19-8 24-8 26-6 19-3Zm248 449-10 10 2 5 17 17 8 7 11 9 18 13 4 2 10-19 5-11-36-18-19-10Zm51 355v38l10-5-5-32Z"/></svg>