<svg xmlns="http://www.w3.org/2000/svg" viewBox="0 0 1080 1080"><path d="M921 159h16l7 4 4 7v11l-24 71-14 40-2 15-8 31 1 5 13 18 10 15 10 16 12 21 10 19 9 20 11 27 10-10 8-7 15-14 8-7 15-14 8-7 13-12 6-3h8l6 3 4 6 1 8-3 7-9 9-8 7-15 14-8 7-15 14-8 7-15 14-10 9 1 9 7 31 5 35 2 27v34l-1 5h79v57h-86l-4 19-8 26-10 25-12 25-13 22-12 17-6 8 2 4 13 14 7 8 9 10 7 8 6 8 1 8-3 7-4 4-5 2-9-1-6-4-9-10-7-8-9-10-7-8-6-7-7 6-10 10-5 4 2 5 13 24 10 22 10 26 10 33 6 20 10 41 3 14H4l2-11 6-23 12-35 11-26 5-11 4-55 10-169 9-151 4-50 6-52 6-40 5-26 5-19 5-13 2-4-17-29-17-28-12-21-12-20-16-27v-12l4-6 5-4 10-2 273-27 7-2 19-10 21-10 28-11 24-8 27-7 30-6 33-4 15-1h43l34 3 30 5 26 6 26 8h11Z"/></svg>