<svg xmlns="http://www.w3.org/2000/svg" viewBox="0 0 1080 1080"><path d="M499 29h38l25 2 32 5 30 7 33 11 21 9 23 11 19 11 7 6 15 10 8 6 6 3 13 11 8 7 10 9 16 16 7 8 14 17 13 18 11 17 12 21 11 22 10 25 11-1 92-18h13l7 3 6 5 3 7v12l-5 8-10 7-30 18-28 17-26 16 3 26v11l-4 8-6 5-2 1-1 34-3 27-5 26-7 25-10 25-8 16-9 16-8 11-7 7 6 7 10 10 7 8 11 12 11 14 13 16 13 18 10 15 9 15 8 20 2 10v14l-3 8-6 7-10 4h-14l-12-3 3 20 2 26v27l-3 18-6 18-9 16-11 13-8 8-9 7h-2l5 5 18 13 16 12 1 2v61l25-1 55-1h27l17 12 19 14 19 14 12 9 3 4v8l-5 5-1059 1-4-2-2-3v-48l4-5 27-18 24-16 33-1 53-1h40v-31l2-4 11-9 8-7-20-10-15-10-12-11-7-7-9-13-8-16-5-17-2-13v-39l3-32 5-29 8-30 7-20 11-25 10-18 12-18 11-14 9-10-12-6-10-9-8-11-11-19-10-21-9-25-7-28-4-24-1-16-1-38-5-2-6-9-1-4 1-16 2-17 1-3-5-2-22-13-28-17-28-17-11-7-5-7-1-3v-11l5-9 8-5 3-1h13l103 20 2-9 12-27 12-23 13-21 10-14 9-12 11-13 9-10 7-8 11-11 8-7 10-9 17-13 18-13 20-12 18-10 19-9 28-11 26-8 31-7 27-4Z"/></svg>