<svg xmlns="http://www.w3.org/2000/svg" viewBox="0 0 1080 1080"><path d="M520 174h40l21 3 20 5 23 8 22 10 19 11 19 13 14 11 14 12 17 16 14 15 9 10 8 10 13 17 12 17 10 15 13 21 14 25 8 15 13 28 11 25 11 29 12 36 8 27 8 33 6 31 5 35 2 21 1 17v37l-3 34-5 30-6 25-12 36-11 24-12 23-16 24-10 13-9 11-12 13-16 16-11 9-15 12-21 14-19 11-16 8-20 9-28 10-30 8-26 5-31 4-16 1h-44l-25-2-29-4-27-6-25-7-25-9-20-9-16-8-16-9-21-14-17-13-15-13-22-22-9-11-11-14-9-13-11-18-12-23-9-20-7-19-9-32-5-26-3-22-2-25v-39l3-37 5-35 7-36 10-39 12-38 10-28 12-29 12-26 9-19 12-22 16-27 18-27 14-19 13-16 12-14 16-17 7-7 8-7 10-9 17-13 16-11 17-10 16-8 19-8 18-6 23-5Z"/></svg>