<svg xmlns="http://www.w3.org/2000/svg" viewBox="0 0 1080 1080"><path d="M471 68h49l28 3 28 5 30 8 28 10 29 13 24 13 19 12 17 12 13 10 13 11 13 12 21 21 9 11 11 13 12 17 11 17 10 18 8 16 7 15 10 27 7 26 5 26 2 22v29l-3 30-6 31-8 27-8 22-11 25-4 8 9 2 20 9 18 11 11 9 10 9 12 12 11 14 10 15 11 21 8 18 3 13v8l-4 10-5 4-4 2-9 1-10-2-2-1 10 25 9 27 4 23 1 9v33l-3 20-5 17-8 18-9 14-11 14-13 13-17 13-15 9-17 9-28 11-23 7-36 8-34 5-33 3-16 1-73 2h-64l-45-2-57-4-36-4-32-5-28-6-28-8-24-9-21-10-17-11-10-8-11-10-11-14-7-12-6-15-5-22-4-23-2-19v-50l4-30 6-24 8-23 11-24 2-3-1-4-11-9-11-10h-10l-5-3-4-9-5-14-9-11-10-15-10-17-2-6-49 13-29 8h-6l-6-4-2-3v-8l5-6 16-11 20-14 20-14 11-8-4-17-4-21-3-28v-41l3-29 5-28 7-26 7-21 10-24 12-25 12-21 14-21 12-16 8-10 12-14 8-8 5-6 8-7 8-8 11-9 12-10 18-13 21-13 22-12 22-10 24-9 23-7 26-6 28-4Z"/></svg>