<svg xmlns="http://www.w3.org/2000/svg" viewBox="0 0 1080 1080"><path d="M34 72h11l43 11 107 28 80 21 34 9 10 6 7 8 5 10 3 11v456l-4 14-7 11-8 6-7 3-168 25-95 14-12-1-12-6-7-7-7-14-2-10V106l3-12 5-9 5-5 5-4Zm471 123h18l8 2h451l85 1 5 3 3 5-1 17-48 459-32 306-2 8-6 5-29 17-22 13-22 13-27 16-22 13-4 2-289 1H197l-5-5-1-3v-13l2-10 5-4 41-18 42-19 41-18 2-1-2-5-8-16-4-14-1-6v-33l4-22 6-21 8-21 14-29 10-18 12-19 13-18 9-12-1-8-8-32-5-26-4-30-2-22-1-19v-43l2-32 4-34 6-33 7-28 12-36 9-20 8-13 6-8 1-24 3-20 7-28 11-32 10-21 12-18 11-12 4-9 4-4 2-1 14-1ZM302 677h10l8 7 4 11v75l-3 10-6 10-7 5-76 20-19 5-9-1-7-6-4-8-1-4v-81l4-13 6-8 6-5 10-3Zm-144 24h7l7 3 7 8 3 9v84l-4 12-7 10-9 6-21 6-92 24-9 2-9-1-8-5-5-7-3-12v-84l3-12 5-10 5-6 9-6 13-3Z"/></svg>