<svg xmlns="http://www.w3.org/2000/svg" viewBox="0 0 1080 1080"><path d="m437 62 7 1 2 2v7l-8 10-12 14-9 11-12 14-9 11-12 14-9 11-12 14-9 11-12 14-11 13-9 11-12 14-9 11-12 14-9 11-12 14-9 11-12 14-9 11-12 14-6 8 21 12 22 10 24 9 33 10 43 10 44 8 51 8 28 4 4 1v-17l4-25 6-21 8-20 12-23 12-17 9-11 9-10 17-17 14-11 14-10 20-12 16-8 21-9 21-7 25-6 19-3 24-2h24l23 2 23 4 25 7 21 8 21 10 18 11 19 14 11 10 8 7 4 4 6 3 3 7 11 13 13 19 11 19 10 21 2 3 11-13 11-13 9-11 12-14 9-11 12-14 9-11 12-14h1v21l-11 13-9 11-12 14-9 11-12 14-9 11-12 14-6 7 2 9 6 23 4 22 2 18v45l-3 24-5 23-6 20-10 24-10 19-11 16-8 10-9 10-15 15-12 9 9-2 21-9 16-9 19-13 16-11 10-5 3-1h12l10 5 6 8 4 10 1 12-3 13-7 14-12 16-11 12-14 14-11 9-9 8-13 10-18 13-15 10-21 13-18 10-25 12-11 4-7 19-8 16-7 10-9 10-8 8-14 10-15 8-19 7-18 4-16 2h-36l-25-3-28-6-24-7-28-10-25-11-19-9-22-12-18-11-21-14-14-10-13-10-11-9-14-12-8-8-8-7-16-17-11-13-14-19-12-20-10-21-5-15v-3l-25-1-17 5-6 1h-17l-11-4-6-4-5-6-3-9v-11l4-15 7-16 1-2v-10l-4-30-4-15-5-10-10-8-17-12-14-11-14-11-15-13-13-12-13-12-11-11-5-6-5 5-12 14-9 11-12 14-9 11-12 14-5 6-7 1-4-4v-6l9-11 12-14 9-11 12-14 9-11 12-14 1-3-12-15-12-17-9-15-7-15-4-13-1-12 2-10 6-9 7-5 10-2 11 1 16 5 17 9 16 11 13 10 6 5 4-1 9-11 12-14 9-11 12-14 9-11 12-14 9-11 12-14 9-11 12-14 9-11 12-14 9-11 12-14 9-11 12-14 9-11 12-14 9-11 12-14 11-13 4-5Zm432 620 1 6 2-4Zm122 315h7l3 3v7l-9 11-12 14-11 13-9 11-12 14-8 10h-18l2-4 13-15 9-11 12-14 9-11 12-14 9-11Z"/></svg>