<svg xmlns="http://www.w3.org/2000/svg" viewBox="0 0 1080 1080"><path d="M94 13h17l31 7 87 21 92 22 117 28 117 28 38 9 10 4 9 7 7 8 6 10 7 19 3 15 1 9v19l-3 18-5 15-7 12 5 2 9 7h2l7-8 11-10 13-8 8-4 14-3 13 1 9 5 6 9 2 6v10l-3 9-7 8-8 5 12 5 20 9 21 11 18 12 13 10 14 12 14 14 9 11 11 15 12 20 8 17 7 20 1 6 6 2 19 12 15 11 11 9 10 9 10 9 11 12 10 14 7 14v10l-6 7-11 5-25 6-11 2h-6l3 15 2 19v27l-3 24-5 20-6 17-10 21-12 18-8 10-7 8 5 6 8 7 22 22 9 11 11 13 12 16 12 17 11 17 11 18 10 16 11 13 6 12 1 4v13l-3 11-7 14-9 11-10 9-15 10-17 9-25 10-26 8-24 6-31 6-43 6-32 3-39 2h-61l-35-2-38-4-36-6-28-7-23-8-16-8-12-8-8-7-8-12-3-9-5-33-2-17v-5l-9-3-9-6-4-5-16-7-10-8-6-8-5-12-1-11 3-8 9-10 1-4-3-11-13 4-9-1-6-3-8-9-2-5v-11l3-7-13 4-7 1h-19l-30-4-16-5-13-7-12-9-6-5-7-8-5-6v-2h-13l-8-4-5-6-2-6v-11l4-8 4-4-4-19-2-24 2-25 5-21 7-19 8-15 8-11 9-10 7-7 14-10-46-1-8-4-6-7-2-5v-11l4-8 7-6 6-2 54-1 84-1 53-1 2-13 7-28 9-26 11-24 11-20 11-16 8-10 12-14 10-10 11-9 13-10 14-9 18-10 20-9 11-4h3v-2l-5-2-6-5-5-10-2-5-267-42-172-27-15-5-12-7-10-9-10-11-9-15-6-14-5-17-2-11-1-12V91l2-18 4-15 8-16 6-9 8-8 11-7 10-4Zm595 245-13 5-11 7-11 10v2l7 1 18-1 13-4 6-4 4-5v-6l-5-5Zm-118 16 4 4 9 3 6 1h23v-3l-6-4-8 1h-12ZM402 743l-8 13-9 11-1 2 10 3 6 5h2l4-15v-10l-2-9ZM124 254h9l5 4 2 5-2 11-4 15 1 1 10 1 4-17 3-9 4-4 8-1 6 3 3 6-1 9-5 16 5 2 3 3 1 8-3 6-6 3h-5l-7 29h8l6 4 1 2v10l-5 5-3 1h-10l-2-1-2 12-3 11-5 4h-10l-5-5-1-9 3-14h-10l-2 16-5 6-9 1-5-3-3-5 1-14 1-3h-8l-5-3-2-4v-8l5-6 2-1h12l2-13 3-14v-4l-7-2-4-5v-9l4-5 5-2 9 1 2-10 5-18 4-5Zm4 58-2 5-5 26h12l6-26v-4Zm77-3h12l117 11 8 3 7 6 3 6v13l-4 8-8 6-3 1h-16l-108-10-12-2-6-4-5-6-2-5v-11l4-8 7-6Zm-80 152h7l6 4 2 8-6 24 10-1 7-26 5-5 2-1h8l6 5 1 8-5 19 7 6 1 8-3 6-6 3h-5l-4 19-3 11h9l5 4 1 2v9l-4 5-6 2h-10l-1 8-4 16-4 4-9 1-6-4-2-4 1-11 1-8h-9l-1 12-2 8-4 4-9 1-5-3-3-5 1-14 1-2-4 1-7-2-4-5v-9l4-5 6-2h9l1-10 5-22-8-2-4-5v-9l4-5 6-2h8l1-8 6-22 5-5Zm3 58-5 21-2 11 11-1 4-15 3-13v-3Zm31 148 8 1 5 5 1 7-4 16v4l6 5 1 8-3 6-6 3h-5l-2 12-4 18h7l5 3 2 3v10l-5 5-12 3h-3l-1 9-4 16-4 4-2 1h-8l-6-5-1-9 3-12-9 2-3 19-5 6-9 1-6-4-2-4 1-14h-7l-5-3-2-4v-8l5-6 13-3 6-30 1-2-7-1-5-6v-9l4-5 7-2h6l4-18 5-16 4-4 8-1 5 3 3 3 1 6-5 21v2l9-2 7-27 5-6Zm-22 58-8 1-3 9-4 19v4l10-1 7-32Zm20 146h9l6 5 1 8-4 16v3l6 5 1 9-4 6-8 3h-2l-1 8-5 22h8l5 4 1 2v9l-5 6-13 4h-2l-1 10-3 15-4 5-7 2-6-2-4-4-1-8 2-11-8 3-3 20-4 5-4 2-8-1-5-5-1-2 1-13-4 1-7-3-3-4v-9l4-5 12-4h2l5-28 1-5-6-1-5-6v-9l4-5 10-3h3l2-11 6-23 4-5 2-1h9l5 4 2 8-5 20-1 2 6-2h4l2-11 5-20 4-5Zm-22 61-7 2-6 30v2l10-3 6-27v-4Zm218-52 9 1 6 3 7 8 2 8-1 9-5 8-5 4-8 3-118 26-28 6-10-1-9-6-4-6-1-3v-11l5-10 7-5 29-7 91-20Z"/></svg>