<svg xmlns="http://www.w3.org/2000/svg" viewBox="0 0 1080 1080"><path d="M498 269h33l23 3 24 6 21 8 16 8 16 9 14 10 11 9 10 9 13 13 9 11 11 15 11 19 9 19 8 24 4 19 2 18v21l-2 18-6 24-8 19-9 16-11 15 15 10 11 9 15 15 11 14 10 15 10 18 7 17 4 14v12l-3 7-6 5-6 2h-7l-10-3 1 17v12l-3 12-6 11-10 11-14 10-16 8-20 8-30 8-33 6-38 4-18 1h-52l-32-2-33-4-36-7-24-7-20-8-19-10-11-9-8-8-6-10-4-11-1-11-7 2h-8l-8-3-7-7-4-10v-21l5-21 6-16 12-23 12-17 9-10 7-8 8-7v-2l-9-10-10-14-9-17-6-15-5-19-3-20v-32l3-21 6-24 10-25 10-19 12-18 11-14 11-12 11-11 11-9 15-11 15-9 16-8 20-8 22-6 17-3Z"/></svg>