<svg xmlns="http://www.w3.org/2000/svg" viewBox="0 0 1080 1080"><path d="M441 20h16l10 3 8 6 5 9 1 3v12l-3 8-9 10-4 4 10 1 25 6 30 10 26 12 21 12 17 12 11 9 10 9 12 11 7 8 11 13 13 18 11 19 8 16 7 16 3 8v3l10 1 24 6 23 8 20 9 16 8 18 11 13 10 12 11 9 10 6 13v14l-4 9-6 8-12 11-17 11-22 12-26 12-17 7-1 1 3 22 10 8 10 11 9 15 7 10 8 17 4 17v26l-3 16-7 19-9 16-9 12-11 12-3 3v2l7 6 4 8 1 8-3 10-1 3 13-2h20l13 4 9 6 7 8 2 3 4-2 18-12 23-12 20-8 24-7 10-1 16 9 26 16 5-2 18-11 7-1 5 3 1 2v8l-16 33-40 80-11 23-43 86-11 23-27 54-5 4-82 41-19 10-42 21-8 11-9 9-10 6-9 3-5 1h-18l-15-4-13-7-11-9-60-2-182-5-23-1-5-4-1-2v-6l4-10-12-15-13-17-4-5-1-7 5-10-18-3-32-8-30-10-20-9-18-10-16-12-12-12-9-14-5-12-2-9v-56l3-34 4-26 6-27 7-24 9-24 14-29 9-15-2-4-7-7-9-11-9-11-11-17-3-3h-47l-22-3-15-4-12-6-10-9-5-10v-16l3-19 7-21 8-16 10-16 11-14 11-12 16-16 11-9 1-1 1-36 2-25 4-28 6-26 11-33 9-20 11-21 13-20 9-12 9-11 9-10 22-22 11-9 17-13 18-12 15-9 11-6-23-2-13-3-10-5-6-5-4-6-2-6V62l4-10 7-7 11-5 11-2h13l19 3 20 6 18 8 21 11h3l7-8 10-10 16-12 19-10 15-5Zm1 18-13 4-16 8-10 7-14 12v1h36l15-4 12-5 9-7 2-3v-7l-5-5-2-1ZM274 56l-10 3-5 5v7l4 5 9 4 11 2h22l24-3 15-3-4-3-15-7-21-7-17-3Z"/></svg>