<svg xmlns="http://www.w3.org/2000/svg" viewBox="0 0 1080 1080"><path d="M502 50h37l23 2 30 5 25 6 25 8 25 10 23 11 24 14 15 10 19 14 17 14 15 14 17 17 7 8 14 17 13 18 14 22 9 16 29 9 22 7 9 5 8 7 5 11v17l-6 24-6 10-9 8-10 4-7 1 3 17 2 23v26l-2 25-5 27-7 25-8 21-9 19-10 17-11 16 6 21 4 15 11 33 6 26v4h18l12 4 9 6 7 6 7 10 7 15 5 18 3 22v26l-3 24-5 22-9 27-12 25-12 19-10 13-13 15-9 9-11 9-13 10-18 11-16 8-19 8-27 8-32 6-41 6-38 4-45 3-28 1h-61l-45-2-48-4-33-4-49-8-37-8-36-10-27-9-16-8-12-7-13-10-12-11-9-10-12-17-12-23-7-19-6-23-4-28v-37l3-21 6-24 10-25 12-23 12-18 10-13 9-11 14-15 3-3-2-5-8-11-10-16-9-16-12-25-9-24-8-26-5-23-3-19-6-7-6-10-6-14-7-21-15-58-8-27-11-28-8-15-8-14-3-10-1-7v-11l3-13 6-12 7-8 11-7 6-2 7-1 50 1 41 1h31l11-12 7-8 25-25 11-9 16-13 16-11 19-12 18-10 25-12 27-10 24-7 27-6 29-4Zm449 63h6l1 5 1 10 4 8 6 4 16 2 2 2-1 5-16 2-5 3h-2l-2 4-3 10v8l-3 3-4-1-1-2-1-13-3-6-6-5-6-2-12-1-1-1v-5l2-1 12-1 9-4 4-6 1-3 1-13ZM67 323h6l2 6v8l2 9 5 8 6 4 6 2 16 1 3 2v5l-2 2-18 2-10 5-4 5-3 7-1 6v9l-3 5-5-1-2-2v-10l-3-12-6-8-9-4-18-2-2-2v-5l3-2 15-1 10-4 7-8 2-6 1-11 1-7Zm926 47h6l4 4 1 22 4 16 7 11 7 6 10 5 15 3h18l4 2 2 4-1 7-5 3h-17l-12 2-12 5-9 7-7 11-4 16-1 22-4 4h-7l-4-5-1-24-4-13-6-10-8-7-10-5-16-3h-17l-5-4v-8l3-3 8-1h12l12-2 12-5 10-9 5-9 4-13 1-24Zm-61 254h2l1 4 5 2v2l-5 2-1 4h-2l-2-5-4-1v-2l5-1Z"/></svg>