<svg xmlns="http://www.w3.org/2000/svg" viewBox="0 0 1080 1080"><path d="M954 8h6l5 4 1 3v20l-3 5-3 2h-7l-5-5V13l4-4Zm-1 42h8l4 4 1 2v30l-3 5-4 2-7-1-4-5V55ZM513 75h27l25 2 27 4 23 5 30 9 27 11 25 12 22 13 18 12 16 12 11 9 10 9 10 9 16 16 7 8 11 13 12 16 14 21 10 17 12 23 10 24 10 30 6 25 4 26 1 10 1 32-2 27-1 5h53v-16l4-4 2-1h6l5 4 1 3v14h34l12 3 13 7 9 7 9 12 5 10 3 10 1 7v411l-1 74-3 12-7 13-9 11-13 9-9 4-14 3H83l-16-4-13-7-12-11-7-11-4-9-3-14V576l1-49 4-15 7-12 9-10 8-6 12-6 12-3h78l-1-4-1-13v-35l2-23 4-24 8-32 9-26 11-25 13-25 13-21 10-14 9-12 9-11 9-10 7-8 20-20 11-9 13-11 18-13 19-12 21-12 23-11 29-11 28-8 24-5 20-3ZM87 523l-6 4-4 6v477l3 5 5 4 5 1h900l8-3 4-5 1-3V624l-2 3-5 13-1 49-4 9-7 8-12 6-10 2h-10l-14-3-13 9-21 13-6 4 1 8 6 28 5 33 3 33v31l-3 16-5 14-7 13-9 12-12 12-16 11-10 6-25 11-29 9-32 7-42 6-49 4-50 2H484l-45-2-48-4-40-5-38-7-32-8-27-9-20-9-17-9-14-10-10-9-7-7-9-13-7-15-4-18-1-22-5 3-10 7-6 2h-10l-8-4-4-5-3-8v-18l4-18 9-27 12-26 12-22 14-22 14-19 11-14 12-14 14-15 7-8 4-7-7-8-14-17-14-21-10-18-8-17-7-19-3-8Zm797 0-5 12-9 21-10 19-12 18-6 8v2h17l23-3 21-5 13-5 1-1 1-26 3-10 6-9 10-6 11-4v-11Zm82 0v11l8 3 10 5 8 9 3 8 1 10 7 6v-43l-4-6-6-3Zm-12-423 8 1 3 3 1 3v30l-5 6h-8l-5-5v-32l4-5Zm-1 51h8l5 6v30l-3 5-3 2h-6l-5-4-1-2v-32Zm1 50 8 1 3 3 1 3v30l-5 6h-8l-5-5v-32l4-5Zm-1 51h8l4 4 1 2v30l-3 5-4 2-7-1-4-5v-32Zm1 50 8 1 3 3 1 3v30l-3 5-2 1h-8l-5-5v-32l4-5Zm0 51h6l5 4 1 3v29l-3 5-3 2h-6l-4-2-2-3v-33l4-4Zm-1 51h8l4 4 1 2v30l-3 5-7 2-5-2-3-4v-32Z"/></svg>