<svg xmlns="http://www.w3.org/2000/svg" viewBox="0 0 1080 1080"><path d="M57 7h966l12 3 14 7 10 8 8 10 6 12 3 11 1 6v471l-3 14-4 10-7 10-7 8-14 9-9 4-9 2-104 1 17 8 17 11 10 8 10 9 10 10 11 14 10 16 8 16 7 19 5 21 2 15v31l-3 21-6 21-8 20-3 7 9 17 6 16 5 20 3 22v37l-3 19-5 14-8 12-9 9-14 9-15 6-20 5-23 3-14 1h-85l-37-1-24-3-21-5-15-6-13-7-10-8-8-8-9-14-6-16-1-8-6-1-6-4-3-5v-2h-2l-1 10-19 99-4 6-20 8-13 5-28 7-9 2h-9l-41-12-25-9-6-5-5-25-20-108v-8l3-5h2v-9l1-3v-10l3-12 6-9 9-7 6-5 7-3 18-1 8-4 8-7 8-4 6-2 7-1h9l11 3 6 4 5 6 2 3 8-2h20l10 3 6-2h9l9 3 9 7 5 9 2 6v14l-4 9 3 9 6-20 8-18 7-13 3-6-10-19-6-16-6-25-2-18v-23l2-18 6-25 7-18 1-16 4-11 6-8-1-7v-17l4-16 8-15H412l7 11 5 19v22l8 7 6 5 6 10 5 16 7 16 6 20 3 16 1 10v20l-3 20-6 20-8 16-7 11-5 7 2 5 7 11 8 15 8 21 5 22 1 8v11l-2 10-6 9-6 3h-4l-3 14-8 16-8 11-7 7-13 9-15 7-15 5-20 4-18 2-37 1h-85l-31-3-23-5-16-6-15-9-12-12-8-14-3-9-3-18-1-14v-12l2-24 4-21 8-24 8-16 6-10-9-14-7-14-5-15-3-14-1-7v-31l4-22 5-16 7-17 10-18 11-15 12-14 10-10 14-11 15-10 21-11 3-1-168-1-12-3-13-7-10-8-8-10-6-12-3-10-1-7V64l3-14 4-10 7-10 7-8 14-9 13-5Z"/></svg>