<svg xmlns="http://www.w3.org/2000/svg" viewBox="0 0 1080 1080"><path d="M922 18h11l5 3v2h6v10l-3 18-5 15-9 17-5-2-23-14-1-2 8-15 4-15 1-12 6-1 3-3Zm-774 3 9 1 2 13-9 2-2-5Zm390 21h41l36 2 36 4 30 5 28 7 24 8 19 9 13 9 8 7 7 10 4 13v32l-3 45-8 82 33 8 31 9 28 11 20 10 12 8 10 8 12 12 8 14 3 9v19l-4 13-7 11-9 10-9 9-17 12-18 10h-2l13 19 10 15 11 20 4-24 5-17 8-18 8-14 10-13 8-10 6-13 5-16 8 1 71 17 2 1-2 12-7 21-9 20-9 16-10 14-9 11-4 13-1 4-1 24-12 2-46 5h-9l9 27 9 36 3 17 11 12 13 18 9 15 8 18 1 2-1 17-5 9 3 11 1 4v17l-2 10 7 22 21 16 13 11 13 12 13 13 11 14 7 10 8 16 4 13v18l-3 10-6 9-8 8-12 7-17 5-6 1h-11l3 19 1 25-1 10-4 6-6 3-10 7-16 7-21 7-24 6-36 7-39 6-52 6-47 4-31 2-4 1-1 6-81-1v-3l-35 1h-54l-53-1-51-2-48-3-58-5-56-7-42-7-39-9-30-10-4-1-15 6-16 4-6 1h-16l-13-3-11-6-8-8-7-12-4-13-2-12v-20l3-18 5-17 9-19 12-18 11-13 17-17 17-13 15-10 4-3-6-12-1-6-9-1-10-5-9-9-4-8-2-8v-16l1-9-6-7-3-10v-9l3-14 8-20 10-18 11-16 10-13 10-11 1-2-16-4-82-18-2-2 3-19 1-10v-26l-2-19-4-11-9-20-8-24-7-30-4-27v-2l14-2 109-11h4l1 2 3 21 5 18 11 24 6 18 5 21 3 20 2 25 10-21 10-18 12-19 13-18 1-1-31-15-16-11-12-11-7-8-8-16-2-9v-11l4-15 7-12 11-12 7-7 17-12 16-9 25-12 29-11 16-5h3l-2-9-12-84-6-48-1-11v-16l4-11 6-9 10-10 15-10 16-8 14-6 30-10 32-8 34-6 31-4 37-3Z"/></svg>